<svg xmlns="http://www.w3.org/2000/svg" version="1.1" xmlns:xlink="http://www.w3.org/1999/xlink" xmlns:svgjs="http://svgjs.dev/svgjs" width="1440" height="800" preserveAspectRatio="none" viewBox="0 0 1440 800"><g mask="url(&quot;#SvgjsMask1006&quot;)" fill="none"><rect width="1440" height="800" x="0" y="0" fill="#0e2a47"></rect><path d="M-95.69 507.51L-95.69 507.51" stroke="#132e65" stroke-width="1.5"></path><path d="M-95.69 507.51L83.19 531.38" stroke="#132e65" stroke-width="1.5"></path><path d="M-95.69 507.51L-54.95 703.01" stroke="#132e65" stroke-width="1.5"></path><path d="M-95.69 507.51L66.54 709.28" stroke="#132e65" stroke-width="1.5"></path><path d="M-95.69 507.51L-88.71 812.93" stroke="#132e65" stroke-width="1.5"></path><path d="M-54.95 703.01L-54.95 703.01" stroke="#132e65" stroke-width="1.5"></path><path d="M-54.95 703.01L-88.71 812.93" stroke="#132e65" stroke-width="1.5"></path><path d="M-54.95 703.01L66.54 709.28" stroke="#132e65" stroke-width="1.5"></path><path d="M-54.95 703.01L43.47 858.68" stroke="#132e65" stroke-width="1.5"></path><path d="M-88.71 812.93L-88.71 812.93" stroke="#132e65" stroke-width="1.5"></path><path d="M-88.71 812.93L43.47 858.68" stroke="#132e65" stroke-width="1.5"></path><path d="M-88.71 812.93L66.54 709.28" stroke="#132e65" stroke-width="1.5"></path><path d="M-88.71 812.93L-48.61 1010.76" stroke="#132e65" stroke-width="1.5"></path><path d="M-88.71 812.93L77.79 943.4" stroke="#132e65" stroke-width="1.5"></path><path d="M-48.61 1010.76L-48.61 1010.76" stroke="#132e65" stroke-width="1.5"></path><path d="M-48.61 1010.76L77.79 943.4" stroke="#132e65" stroke-width="1.5"></path><path d="M-48.61 1010.76L43.47 858.68" stroke="#132e65" stroke-width="1.5"></path><path d="M-48.61 1010.76L243.21 1003.37" stroke="#132e65" stroke-width="1.5"></path><path d="M83.19 531.38L83.19 531.38" stroke="#132e65" stroke-width="1.5"></path><path d="M83.19 531.38L66.54 709.28" stroke="#132e65" stroke-width="1.5"></path><path d="M83.19 531.38L259.82 503.35" stroke="#132e65" stroke-width="1.5"></path><path d="M83.19 531.38L194.59 703.88" stroke="#132e65" stroke-width="1.5"></path><path d="M66.54 709.28L66.54 709.28" stroke="#132e65" stroke-width="1.5"></path><path d="M66.54 709.28L194.59 703.88" stroke="#132e65" stroke-width="1.5"></path><path d="M66.54 709.28L43.47 858.68" stroke="#132e65" stroke-width="1.5"></path><path d="M66.54 709.28L247.18 796.31" stroke="#132e65" stroke-width="1.5"></path><path d="M43.47 858.68L43.47 858.68" stroke="#132e65" stroke-width="1.5"></path><path d="M43.47 858.68L77.79 943.4" stroke="#132e65" stroke-width="1.5"></path><path d="M77.79 943.4L77.79 943.4" stroke="#132e65" stroke-width="1.5"></path><path d="M77.79 943.4L243.21 1003.37" stroke="#132e65" stroke-width="1.5"></path><path d="M77.79 943.4L247.18 796.31" stroke="#132e65" stroke-width="1.5"></path><path d="M77.79 943.4L66.54 709.28" stroke="#132e65" stroke-width="1.5"></path><path d="M259.82 503.35L259.82 503.35" stroke="#132e65" stroke-width="1.5"></path><path d="M259.82 503.35L373.83 521.58" stroke="#132e65" stroke-width="1.5"></path><path d="M259.82 503.35L194.59 703.88" stroke="#132e65" stroke-width="1.5"></path><path d="M194.59 703.88L194.59 703.88" stroke="#132e65" stroke-width="1.5"></path><path d="M194.59 703.88L247.18 796.31" stroke="#132e65" stroke-width="1.5"></path><path d="M247.18 796.31L247.18 796.31" stroke="#132e65" stroke-width="1.5"></path><path d="M247.18 796.31L346.47 860.51" stroke="#132e65" stroke-width="1.5"></path><path d="M247.18 796.31L406.18 669.33" stroke="#132e65" stroke-width="1.5"></path><path d="M243.21 1003.37L243.21 1003.37" stroke="#132e65" stroke-width="1.5"></path><path d="M243.21 1003.37L388.64 971.52" stroke="#132e65" stroke-width="1.5"></path><path d="M243.21 1003.37L346.47 860.51" stroke="#132e65" stroke-width="1.5"></path><path d="M243.21 1003.37L247.18 796.31" stroke="#132e65" stroke-width="1.5"></path><path d="M373.83 521.58L373.83 521.58" stroke="#132e65" stroke-width="1.5"></path><path d="M406.18 669.33L406.18 669.33" stroke="#132e65" stroke-width="1.5"></path><path d="M406.18 669.33L373.83 521.58" stroke="#132e65" stroke-width="1.5"></path><path d="M406.18 669.33L500.24 543.54" stroke="#132e65" stroke-width="1.5"></path><path d="M406.18 669.33L539.38 797.72" stroke="#132e65" stroke-width="1.5"></path><path d="M406.18 669.33L346.47 860.51" stroke="#132e65" stroke-width="1.5"></path><path d="M346.47 860.51L346.47 860.51" stroke="#132e65" stroke-width="1.5"></path><path d="M346.47 860.51L388.64 971.52" stroke="#132e65" stroke-width="1.5"></path><path d="M388.64 971.52L388.64 971.52" stroke="#132e65" stroke-width="1.5"></path><path d="M388.64 971.52L500.57 999.77" stroke="#132e65" stroke-width="1.5"></path><path d="M388.64 971.52L247.18 796.31" stroke="#132e65" stroke-width="1.5"></path><path d="M388.64 971.52L539.38 797.72" stroke="#132e65" stroke-width="1.5"></path><path d="M560.65 375.42L560.65 375.42" stroke="#132e65" stroke-width="1.5"></path><path d="M560.65 375.42L686.52 396.22" stroke="#132e65" stroke-width="1.5"></path><path d="M560.65 375.42L500.24 543.54" stroke="#132e65" stroke-width="1.5"></path><path d="M560.65 375.42L373.83 521.58" stroke="#132e65" stroke-width="1.5"></path><path d="M560.65 375.42L796.29 500.88" stroke="#132e65" stroke-width="1.5"></path><path d="M560.65 375.42L792.7 226.95" stroke="#132e65" stroke-width="1.5"></path><path d="M500.24 543.54L500.24 543.54" stroke="#132e65" stroke-width="1.5"></path><path d="M500.24 543.54L373.83 521.58" stroke="#132e65" stroke-width="1.5"></path><path d="M539.38 797.72L539.38 797.72" stroke="#132e65" stroke-width="1.5"></path><path d="M539.38 797.72L685.16 790.51" stroke="#132e65" stroke-width="1.5"></path><path d="M539.38 797.72L346.47 860.51" stroke="#132e65" stroke-width="1.5"></path><path d="M539.38 797.72L710.29 686.12" stroke="#132e65" stroke-width="1.5"></path><path d="M539.38 797.72L500.57 999.77" stroke="#132e65" stroke-width="1.5"></path><path d="M500.57 999.77L500.57 999.77" stroke="#132e65" stroke-width="1.5"></path><path d="M500.57 999.77L667.8 982.21" stroke="#132e65" stroke-width="1.5"></path><path d="M686.52 396.22L686.52 396.22" stroke="#132e65" stroke-width="1.5"></path><path d="M686.52 396.22L796.29 500.88" stroke="#132e65" stroke-width="1.5"></path><path d="M686.52 396.22L792.7 226.95" stroke="#132e65" stroke-width="1.5"></path><path d="M686.52 396.22L500.24 543.54" stroke="#132e65" stroke-width="1.5"></path><path d="M686.52 396.22L937.81 347.9" stroke="#132e65" stroke-width="1.5"></path><path d="M686.52 396.22L710.29 686.12" stroke="#132e65" stroke-width="1.5"></path><path d="M710.29 686.12L710.29 686.12" stroke="#132e65" stroke-width="1.5"></path><path d="M710.29 686.12L685.16 790.51" stroke="#132e65" stroke-width="1.5"></path><path d="M710.29 686.12L861.93 654.83" stroke="#132e65" stroke-width="1.5"></path><path d="M685.16 790.51L685.16 790.51" stroke="#132e65" stroke-width="1.5"></path><path d="M685.16 790.51L858.64 802.75" stroke="#132e65" stroke-width="1.5"></path><path d="M685.16 790.51L667.8 982.21" stroke="#132e65" stroke-width="1.5"></path><path d="M685.16 790.51L861.93 654.83" stroke="#132e65" stroke-width="1.5"></path><path d="M667.8 982.21L667.8 982.21" stroke="#132e65" stroke-width="1.5"></path><path d="M667.8 982.21L539.38 797.72" stroke="#132e65" stroke-width="1.5"></path><path d="M667.8 982.21L858.64 802.75" stroke="#132e65" stroke-width="1.5"></path><path d="M792.7 226.95L792.7 226.95" stroke="#132e65" stroke-width="1.5"></path><path d="M792.7 226.95L978.02 199.46" stroke="#132e65" stroke-width="1.5"></path><path d="M792.7 226.95L937.81 347.9" stroke="#132e65" stroke-width="1.5"></path><path d="M796.29 500.88L796.29 500.88" stroke="#132e65" stroke-width="1.5"></path><path d="M796.29 500.88L949.46 549.06" stroke="#132e65" stroke-width="1.5"></path><path d="M796.29 500.88L861.93 654.83" stroke="#132e65" stroke-width="1.5"></path><path d="M796.29 500.88L710.29 686.12" stroke="#132e65" stroke-width="1.5"></path><path d="M796.29 500.88L937.81 347.9" stroke="#132e65" stroke-width="1.5"></path><path d="M861.93 654.83L861.93 654.83" stroke="#132e65" stroke-width="1.5"></path><path d="M861.93 654.83L949.46 549.06" stroke="#132e65" stroke-width="1.5"></path><path d="M858.64 802.75L858.64 802.75" stroke="#132e65" stroke-width="1.5"></path><path d="M858.64 802.75L973.59 842.68" stroke="#132e65" stroke-width="1.5"></path><path d="M858.64 802.75L861.93 654.83" stroke="#132e65" stroke-width="1.5"></path><path d="M991.42 -75.66L991.42 -75.66" stroke="#132e65" stroke-width="1.5"></path><path d="M991.42 -75.66L1012.41 65.39" stroke="#132e65" stroke-width="1.5"></path><path d="M991.42 -75.66L1156.59 -60.12" stroke="#132e65" stroke-width="1.5"></path><path d="M991.42 -75.66L1161.27 105.65" stroke="#132e65" stroke-width="1.5"></path><path d="M1012.41 65.39L1012.41 65.39" stroke="#132e65" stroke-width="1.5"></path><path d="M1012.41 65.39L978.02 199.46" stroke="#132e65" stroke-width="1.5"></path><path d="M1012.41 65.39L1161.27 105.65" stroke="#132e65" stroke-width="1.5"></path><path d="M1012.41 65.39L1156.59 -60.12" stroke="#132e65" stroke-width="1.5"></path><path d="M978.02 199.46L978.02 199.46" stroke="#132e65" stroke-width="1.5"></path><path d="M978.02 199.46L937.81 347.9" stroke="#132e65" stroke-width="1.5"></path><path d="M978.02 199.46L1133.71 237.78" stroke="#132e65" stroke-width="1.5"></path><path d="M978.02 199.46L1161.27 105.65" stroke="#132e65" stroke-width="1.5"></path><path d="M937.81 347.9L937.81 347.9" stroke="#132e65" stroke-width="1.5"></path><path d="M949.46 549.06L949.46 549.06" stroke="#132e65" stroke-width="1.5"></path><path d="M949.46 549.06L993 698.43" stroke="#132e65" stroke-width="1.5"></path><path d="M949.46 549.06L1107.13 521.55" stroke="#132e65" stroke-width="1.5"></path><path d="M949.46 549.06L937.81 347.9" stroke="#132e65" stroke-width="1.5"></path><path d="M949.46 549.06L1158.59 680.66" stroke="#132e65" stroke-width="1.5"></path><path d="M993 698.43L993 698.43" stroke="#132e65" stroke-width="1.5"></path><path d="M993 698.43L861.93 654.83" stroke="#132e65" stroke-width="1.5"></path><path d="M993 698.43L973.59 842.68" stroke="#132e65" stroke-width="1.5"></path><path d="M993 698.43L1158.59 680.66" stroke="#132e65" stroke-width="1.5"></path><path d="M993 698.43L858.64 802.75" stroke="#132e65" stroke-width="1.5"></path><path d="M973.59 842.68L973.59 842.68" stroke="#132e65" stroke-width="1.5"></path><path d="M973.59 842.68L985.36 1008.39" stroke="#132e65" stroke-width="1.5"></path><path d="M973.59 842.68L1140.98 811.53" stroke="#132e65" stroke-width="1.5"></path><path d="M985.36 1008.39L985.36 1008.39" stroke="#132e65" stroke-width="1.5"></path><path d="M985.36 1008.39L1107.25 967.05" stroke="#132e65" stroke-width="1.5"></path><path d="M985.36 1008.39L858.64 802.75" stroke="#132e65" stroke-width="1.5"></path><path d="M1156.59 -60.12L1156.59 -60.12" stroke="#132e65" stroke-width="1.5"></path><path d="M1156.59 -60.12L1277.48 -88.28" stroke="#132e65" stroke-width="1.5"></path><path d="M1156.59 -60.12L1161.27 105.65" stroke="#132e65" stroke-width="1.5"></path><path d="M1156.59 -60.12L1300.67 41.01" stroke="#132e65" stroke-width="1.5"></path><path d="M1161.27 105.65L1161.27 105.65" stroke="#132e65" stroke-width="1.5"></path><path d="M1161.27 105.65L1133.71 237.78" stroke="#132e65" stroke-width="1.5"></path><path d="M1161.27 105.65L1300.67 41.01" stroke="#132e65" stroke-width="1.5"></path><path d="M1133.71 237.78L1133.71 237.78" stroke="#132e65" stroke-width="1.5"></path><path d="M1133.71 237.78L1157.36 342.96" stroke="#132e65" stroke-width="1.5"></path><path d="M1157.36 342.96L1157.36 342.96" stroke="#132e65" stroke-width="1.5"></path><path d="M1157.36 342.96L1291.43 396.14" stroke="#132e65" stroke-width="1.5"></path><path d="M1157.36 342.96L1308.84 253.27" stroke="#132e65" stroke-width="1.5"></path><path d="M1157.36 342.96L1107.13 521.55" stroke="#132e65" stroke-width="1.5"></path><path d="M1107.13 521.55L1107.13 521.55" stroke="#132e65" stroke-width="1.5"></path><path d="M1107.13 521.55L1241.05 511.3" stroke="#132e65" stroke-width="1.5"></path><path d="M1107.13 521.55L1158.59 680.66" stroke="#132e65" stroke-width="1.5"></path><path d="M1158.59 680.66L1158.59 680.66" stroke="#132e65" stroke-width="1.5"></path><path d="M1158.59 680.66L1140.98 811.53" stroke="#132e65" stroke-width="1.5"></path><path d="M1158.59 680.66L1311.48 709.47" stroke="#132e65" stroke-width="1.5"></path><path d="M1140.98 811.53L1140.98 811.53" stroke="#132e65" stroke-width="1.5"></path><path d="M1140.98 811.53L1107.25 967.05" stroke="#132e65" stroke-width="1.5"></path><path d="M1140.98 811.53L1312.08 836.27" stroke="#132e65" stroke-width="1.5"></path><path d="M1107.25 967.05L1107.25 967.05" stroke="#132e65" stroke-width="1.5"></path><path d="M1107.25 967.05L1258.01 970.14" stroke="#132e65" stroke-width="1.5"></path><path d="M1277.48 -88.28L1277.48 -88.28" stroke="#132e65" stroke-width="1.5"></path><path d="M1277.48 -88.28L1300.67 41.01" stroke="#132e65" stroke-width="1.5"></path><path d="M1277.48 -88.28L1433.71 -54.28" stroke="#132e65" stroke-width="1.5"></path><path d="M1277.48 -88.28L1161.27 105.65" stroke="#132e65" stroke-width="1.5"></path><path d="M1300.67 41.01L1300.67 41.01" stroke="#132e65" stroke-width="1.5"></path><path d="M1300.67 41.01L1431.19 79.32" stroke="#132e65" stroke-width="1.5"></path><path d="M1300.67 41.01L1433.71 -54.28" stroke="#132e65" stroke-width="1.5"></path><path d="M1308.84 253.27L1308.84 253.27" stroke="#132e65" stroke-width="1.5"></path><path d="M1308.84 253.27L1406.43 216.49" stroke="#132e65" stroke-width="1.5"></path><path d="M1308.84 253.27L1398.36 358.92" stroke="#132e65" stroke-width="1.5"></path><path d="M1308.84 253.27L1291.43 396.14" stroke="#132e65" stroke-width="1.5"></path><path d="M1308.84 253.27L1133.71 237.78" stroke="#132e65" stroke-width="1.5"></path><path d="M1291.43 396.14L1291.43 396.14" stroke="#132e65" stroke-width="1.5"></path><path d="M1291.43 396.14L1398.36 358.92" stroke="#132e65" stroke-width="1.5"></path><path d="M1241.05 511.3L1241.05 511.3" stroke="#132e65" stroke-width="1.5"></path><path d="M1241.05 511.3L1291.43 396.14" stroke="#132e65" stroke-width="1.5"></path><path d="M1241.05 511.3L1157.36 342.96" stroke="#132e65" stroke-width="1.5"></path><path d="M1241.05 511.3L1158.59 680.66" stroke="#132e65" stroke-width="1.5"></path><path d="M1241.05 511.3L1311.48 709.47" stroke="#132e65" stroke-width="1.5"></path><path d="M1241.05 511.3L1398.36 358.92" stroke="#132e65" stroke-width="1.5"></path><path d="M1311.48 709.47L1311.48 709.47" stroke="#132e65" stroke-width="1.5"></path><path d="M1311.48 709.47L1312.08 836.27" stroke="#132e65" stroke-width="1.5"></path><path d="M1311.48 709.47L1452.73 663.93" stroke="#132e65" stroke-width="1.5"></path><path d="M1312.08 836.27L1312.08 836.27" stroke="#132e65" stroke-width="1.5"></path><path d="M1312.08 836.27L1403.32 838.62" stroke="#132e65" stroke-width="1.5"></path><path d="M1258.01 970.14L1258.01 970.14" stroke="#132e65" stroke-width="1.5"></path><path d="M1258.01 970.14L1312.08 836.27" stroke="#132e65" stroke-width="1.5"></path><path d="M1258.01 970.14L1438.83 980.22" stroke="#132e65" stroke-width="1.5"></path><path d="M1433.71 -54.28L1433.71 -54.28" stroke="#132e65" stroke-width="1.5"></path><path d="M1433.71 -54.28L1431.19 79.32" stroke="#132e65" stroke-width="1.5"></path><path d="M1431.19 79.32L1431.19 79.32" stroke="#132e65" stroke-width="1.5"></path><path d="M1431.19 79.32L1406.43 216.49" stroke="#132e65" stroke-width="1.5"></path><path d="M1431.19 79.32L1587.68 48.91" stroke="#132e65" stroke-width="1.5"></path><path d="M1406.43 216.49L1406.43 216.49" stroke="#132e65" stroke-width="1.5"></path><path d="M1406.43 216.49L1398.36 358.92" stroke="#132e65" stroke-width="1.5"></path><path d="M1406.43 216.49L1605.15 227.92" stroke="#132e65" stroke-width="1.5"></path><path d="M1398.36 358.92L1398.36 358.92" stroke="#132e65" stroke-width="1.5"></path><path d="M1398.36 358.92L1543.2 383.97" stroke="#132e65" stroke-width="1.5"></path><path d="M1452.73 663.93L1452.73 663.93" stroke="#132e65" stroke-width="1.5"></path><path d="M1452.73 663.93L1576.66 684.82" stroke="#132e65" stroke-width="1.5"></path><path d="M1452.73 663.93L1403.32 838.62" stroke="#132e65" stroke-width="1.5"></path><path d="M1452.73 663.93L1561.11 812.3" stroke="#132e65" stroke-width="1.5"></path><path d="M1403.32 838.62L1403.32 838.62" stroke="#132e65" stroke-width="1.5"></path><path d="M1438.83 980.22L1438.83 980.22" stroke="#132e65" stroke-width="1.5"></path><path d="M1438.83 980.22L1543.48 962.76" stroke="#132e65" stroke-width="1.5"></path><path d="M1438.83 980.22L1403.32 838.62" stroke="#132e65" stroke-width="1.5"></path><path d="M1438.83 980.22L1312.08 836.27" stroke="#132e65" stroke-width="1.5"></path><path d="M1605.44 -86.78L1605.44 -86.78" stroke="#132e65" stroke-width="1.5"></path><path d="M1605.44 -86.78L1587.68 48.91" stroke="#132e65" stroke-width="1.5"></path><path d="M1605.44 -86.78L1433.71 -54.28" stroke="#132e65" stroke-width="1.5"></path><path d="M1605.44 -86.78L1431.19 79.32" stroke="#132e65" stroke-width="1.5"></path><path d="M1605.44 -86.78L1605.15 227.92" stroke="#132e65" stroke-width="1.5"></path><path d="M1605.44 -86.78L1277.48 -88.28" stroke="#132e65" stroke-width="1.5"></path><path d="M1587.68 48.91L1587.68 48.91" stroke="#132e65" stroke-width="1.5"></path><path d="M1587.68 48.91L1605.15 227.92" stroke="#132e65" stroke-width="1.5"></path><path d="M1587.68 48.91L1433.71 -54.28" stroke="#132e65" stroke-width="1.5"></path><path d="M1605.15 227.92L1605.15 227.92" stroke="#132e65" stroke-width="1.5"></path><path d="M1605.15 227.92L1543.2 383.97" stroke="#132e65" stroke-width="1.5"></path><path d="M1543.2 383.97L1543.2 383.97" stroke="#132e65" stroke-width="1.5"></path><path d="M1543.2 383.97L1611.82 500.61" stroke="#132e65" stroke-width="1.5"></path><path d="M1543.2 383.97L1406.43 216.49" stroke="#132e65" stroke-width="1.5"></path><path d="M1543.2 383.97L1291.43 396.14" stroke="#132e65" stroke-width="1.5"></path><path d="M1611.82 500.61L1611.82 500.61" stroke="#132e65" stroke-width="1.5"></path><path d="M1611.82 500.61L1576.66 684.82" stroke="#132e65" stroke-width="1.5"></path><path d="M1611.82 500.61L1452.73 663.93" stroke="#132e65" stroke-width="1.5"></path><path d="M1611.82 500.61L1398.36 358.92" stroke="#132e65" stroke-width="1.5"></path><path d="M1611.82 500.61L1605.15 227.92" stroke="#132e65" stroke-width="1.5"></path><path d="M1611.82 500.61L1561.11 812.3" stroke="#132e65" stroke-width="1.5"></path><path d="M1576.66 684.82L1576.66 684.82" stroke="#132e65" stroke-width="1.5"></path><path d="M1576.66 684.82L1561.11 812.3" stroke="#132e65" stroke-width="1.5"></path><path d="M1576.66 684.82L1403.32 838.62" stroke="#132e65" stroke-width="1.5"></path><path d="M1561.11 812.3L1561.11 812.3" stroke="#132e65" stroke-width="1.5"></path><path d="M1561.11 812.3L1543.48 962.76" stroke="#132e65" stroke-width="1.5"></path><path d="M1561.11 812.3L1403.32 838.62" stroke="#132e65" stroke-width="1.5"></path><path d="M1543.48 962.76L1543.48 962.76" stroke="#132e65" stroke-width="1.5"></path><circle r="5" cx="-95.69" cy="507.51" fill="#132e65"></circle><circle r="5" cx="-54.95" cy="703.01" fill="#132e65"></circle><circle r="5" cx="-88.71" cy="812.93" fill="#132e65"></circle><circle r="5" cx="-48.61" cy="1010.76" fill="#132e65"></circle><circle r="5" cx="83.19" cy="531.38" fill="#132e65"></circle><circle r="5" cx="66.54" cy="709.28" fill="#132e65"></circle><circle r="5" cx="43.47" cy="858.68" fill="#132e65"></circle><circle r="5" cx="77.79" cy="943.4" fill="#132e65"></circle><circle r="5" cx="259.82" cy="503.35" fill="#132e65"></circle><circle r="5" cx="194.59" cy="703.88" fill="#132e65"></circle><circle r="5" cx="247.18" cy="796.31" fill="#132e65"></circle><circle r="5" cx="243.21" cy="1003.37" fill="#132e65"></circle><circle r="5" cx="373.83" cy="521.58" fill="#132e65"></circle><circle r="5" cx="406.18" cy="669.33" fill="#132e65"></circle><circle r="5" cx="346.47" cy="860.51" fill="#132e65"></circle><circle r="5" cx="388.64" cy="971.52" fill="#132e65"></circle><circle r="5" cx="560.65" cy="375.42" fill="#132e65"></circle><circle r="5" cx="500.24" cy="543.54" fill="#132e65"></circle><circle r="5" cx="539.38" cy="797.72" fill="#132e65"></circle><circle r="5" cx="500.57" cy="999.77" fill="#132e65"></circle><circle r="5" cx="686.52" cy="396.22" fill="#132e65"></circle><circle r="5" cx="710.29" cy="686.12" fill="#132e65"></circle><circle r="5" cx="685.16" cy="790.51" fill="#132e65"></circle><circle r="5" cx="667.8" cy="982.21" fill="#132e65"></circle><circle r="5" cx="792.7" cy="226.95" fill="#132e65"></circle><circle r="5" cx="796.29" cy="500.88" fill="#132e65"></circle><circle r="5" cx="861.93" cy="654.83" fill="#132e65"></circle><circle r="5" cx="858.64" cy="802.75" fill="#132e65"></circle><circle r="5" cx="991.42" cy="-75.66" fill="#132e65"></circle><circle r="5" cx="1012.41" cy="65.39" fill="#132e65"></circle><circle r="5" cx="978.02" cy="199.46" fill="#132e65"></circle><circle r="5" cx="937.81" cy="347.9" fill="#132e65"></circle><circle r="5" cx="949.46" cy="549.06" fill="#132e65"></circle><circle r="5" cx="993" cy="698.43" fill="#132e65"></circle><circle r="5" cx="973.59" cy="842.68" fill="#132e65"></circle><circle r="5" cx="985.36" cy="1008.39" fill="#132e65"></circle><circle r="5" cx="1156.59" cy="-60.12" fill="#132e65"></circle><circle r="5" cx="1161.27" cy="105.65" fill="#132e65"></circle><circle r="5" cx="1133.71" cy="237.78" fill="#132e65"></circle><circle r="5" cx="1157.36" cy="342.96" fill="#132e65"></circle><circle r="5" cx="1107.13" cy="521.55" fill="#132e65"></circle><circle r="5" cx="1158.59" cy="680.66" fill="#132e65"></circle><circle r="5" cx="1140.98" cy="811.53" fill="#132e65"></circle><circle r="5" cx="1107.25" cy="967.05" fill="#132e65"></circle><circle r="5" cx="1277.48" cy="-88.28" fill="#132e65"></circle><circle r="5" cx="1300.67" cy="41.01" fill="#132e65"></circle><circle r="5" cx="1308.84" cy="253.27" fill="#132e65"></circle><circle r="5" cx="1291.43" cy="396.14" fill="#132e65"></circle><circle r="5" cx="1241.05" cy="511.3" fill="#132e65"></circle><circle r="5" cx="1311.48" cy="709.47" fill="#132e65"></circle><circle r="5" cx="1312.08" cy="836.27" fill="#132e65"></circle><circle r="5" cx="1258.01" cy="970.14" fill="#132e65"></circle><circle r="5" cx="1433.71" cy="-54.28" fill="#132e65"></circle><circle r="5" cx="1431.19" cy="79.32" fill="#132e65"></circle><circle r="5" cx="1406.43" cy="216.49" fill="#132e65"></circle><circle r="5" cx="1398.36" cy="358.92" fill="#132e65"></circle><circle r="5" cx="1452.73" cy="663.93" fill="#132e65"></circle><circle r="5" cx="1403.32" cy="838.62" fill="#132e65"></circle><circle r="5" cx="1438.83" cy="980.22" fill="#132e65"></circle><circle r="5" cx="1605.44" cy="-86.78" fill="#132e65"></circle><circle r="5" cx="1587.68" cy="48.91" fill="#132e65"></circle><circle r="5" cx="1605.15" cy="227.92" fill="#132e65"></circle><circle r="5" cx="1543.2" cy="383.97" fill="#132e65"></circle><circle r="5" cx="1611.82" cy="500.61" fill="#132e65"></circle><circle r="5" cx="1576.66" cy="684.82" fill="#132e65"></circle><circle r="5" cx="1561.11" cy="812.3" fill="#132e65"></circle><circle r="5" cx="1543.48" cy="962.76" fill="#132e65"></circle><path d="M-62.67 680.44L-62.67 680.44" stroke="hsl(228.5, 77.2%, 51.5%)" stroke-width="1.5"></path><path d="M-62.67 680.44L-86.56 809.6" stroke="hsl(228.5, 77.2%, 51.5%)" stroke-width="1.5"></path><path d="M-62.67 680.44L74.87 668.89" stroke="hsl(228.5, 77.2%, 51.5%)" stroke-width="1.5"></path><path d="M-62.67 680.44L101.13 827.38" stroke="hsl(228.5, 77.2%, 51.5%)" stroke-width="1.5"></path><path d="M800.65 983.47L800.65 983.47" stroke="hsl(228.5, 77.2%, 51.5%)" stroke-width="1.5"></path><path d="M800.65 983.47L822.77 844.89" stroke="hsl(228.5, 77.2%, 51.5%)" stroke-width="1.5"></path><path d="M800.65 983.47L980.51 975.84" stroke="hsl(228.5, 77.2%, 51.5%)" stroke-width="1.5"></path><path d="M800.65 983.47L941.84 847.18" stroke="hsl(228.5, 77.2%, 51.5%)" stroke-width="1.5"></path><path d="M800.65 983.47L649.18 830.88" stroke="hsl(228.5, 77.2%, 51.5%)" stroke-width="1.5"></path><path d="M800.65 983.47L548.88 999.22" stroke="hsl(228.5, 77.2%, 51.5%)" stroke-width="1.5"></path><path d="M1134.9 211.34L1134.9 211.34" stroke="hsl(228.5, 77.2%, 51.5%)" stroke-width="1.5"></path><path d="M1134.9 211.34L1241.3 254.26" stroke="hsl(228.5, 77.2%, 51.5%)" stroke-width="1.5"></path><path d="M1134.9 211.34L1153.48 406.45" stroke="hsl(228.5, 77.2%, 51.5%)" stroke-width="1.5"></path><path d="M1134.9 211.34L1247.91 44.69" stroke="hsl(228.5, 77.2%, 51.5%)" stroke-width="1.5"></path><path d="M1134.9 211.34L956.9 361.41" stroke="hsl(228.5, 77.2%, 51.5%)" stroke-width="1.5"></path><path d="M1134.9 211.34L1304.08 395.79" stroke="hsl(228.5, 77.2%, 51.5%)" stroke-width="1.5"></path><path d="M1134.9 211.34L1255.27 -72.34" stroke="hsl(228.5, 77.2%, 51.5%)" stroke-width="1.5"></path><path d="M1304.08 395.79L1304.08 395.79" stroke="hsl(228.5, 77.2%, 51.5%)" stroke-width="1.5"></path><path d="M1304.08 395.79L1409.5 379.51" stroke="hsl(228.5, 77.2%, 51.5%)" stroke-width="1.5"></path><path d="M1304.08 395.79L1285.01 542.78" stroke="hsl(228.5, 77.2%, 51.5%)" stroke-width="1.5"></path><path d="M1304.08 395.79L1410.6 501.1" stroke="hsl(228.5, 77.2%, 51.5%)" stroke-width="1.5"></path><path d="M1304.08 395.79L1153.48 406.45" stroke="hsl(228.5, 77.2%, 51.5%)" stroke-width="1.5"></path><path d="M1304.08 395.79L1241.3 254.26" stroke="hsl(228.5, 77.2%, 51.5%)" stroke-width="1.5"></path><path d="M1241.4 859.63L1241.4 859.63" stroke="hsl(228.5, 77.2%, 51.5%)" stroke-width="1.5"></path><path d="M1241.4 859.63L1121.01 848.81" stroke="hsl(228.5, 77.2%, 51.5%)" stroke-width="1.5"></path><path d="M1241.4 859.63L1390.79 841.24" stroke="hsl(228.5, 77.2%, 51.5%)" stroke-width="1.5"></path><path d="M1241.4 859.63L1303.55 997.7" stroke="hsl(228.5, 77.2%, 51.5%)" stroke-width="1.5"></path><path d="M1241.4 859.63L1278.3 708.98" stroke="hsl(228.5, 77.2%, 51.5%)" stroke-width="1.5"></path><path d="M1241.4 859.63L1405.38 969.73" stroke="hsl(228.5, 77.2%, 51.5%)" stroke-width="1.5"></path><path d="M1241.4 859.63L1094.53 683.3" stroke="hsl(228.5, 77.2%, 51.5%)" stroke-width="1.5"></path><path d="M1303.55 997.7L1303.55 997.7" stroke="hsl(228.5, 77.2%, 51.5%)" stroke-width="1.5"></path><path d="M1303.55 997.7L1405.38 969.73" stroke="hsl(228.5, 77.2%, 51.5%)" stroke-width="1.5"></path><path d="M1387.88 -111.71L1387.88 -111.71" stroke="hsl(228.5, 77.2%, 51.5%)" stroke-width="1.5"></path><path d="M1387.88 -111.71L1255.27 -72.34" stroke="hsl(228.5, 77.2%, 51.5%)" stroke-width="1.5"></path><path d="M1387.88 -111.71L1446.05 49.44" stroke="hsl(228.5, 77.2%, 51.5%)" stroke-width="1.5"></path><path d="M1387.88 -111.71L1574.45 -100.96" stroke="hsl(228.5, 77.2%, 51.5%)" stroke-width="1.5"></path><path d="M1387.88 -111.71L1247.91 44.69" stroke="hsl(228.5, 77.2%, 51.5%)" stroke-width="1.5"></path><path d="M1387.88 -111.71L1559 60.38" stroke="hsl(228.5, 77.2%, 51.5%)" stroke-width="1.5"></path><path d="M1387.88 -111.71L1443.24 193.81" stroke="hsl(228.5, 77.2%, 51.5%)" stroke-width="1.5"></path><path d="M1409.5 379.51L1409.5 379.51" stroke="hsl(228.5, 77.2%, 51.5%)" stroke-width="1.5"></path><path d="M1409.5 379.51L1410.6 501.1" stroke="hsl(228.5, 77.2%, 51.5%)" stroke-width="1.5"></path><path d="M1409.5 379.51L1562.92 376.02" stroke="hsl(228.5, 77.2%, 51.5%)" stroke-width="1.5"></path><path d="M1409.5 379.51L1548.42 256.48" stroke="hsl(228.5, 77.2%, 51.5%)" stroke-width="1.5"></path><path d="M1409.5 379.51L1443.24 193.81" stroke="hsl(228.5, 77.2%, 51.5%)" stroke-width="1.5"></path><path d="M1409.5 379.51L1285.01 542.78" stroke="hsl(228.5, 77.2%, 51.5%)" stroke-width="1.5"></path><path d="M1410.6 501.1L1410.6 501.1" stroke="hsl(228.5, 77.2%, 51.5%)" stroke-width="1.5"></path><path d="M1410.6 501.1L1285.01 542.78" stroke="hsl(228.5, 77.2%, 51.5%)" stroke-width="1.5"></path><path d="M1574.45 -100.96L1574.45 -100.96" stroke="hsl(228.5, 77.2%, 51.5%)" stroke-width="1.5"></path><path d="M1574.45 -100.96L1559 60.38" stroke="hsl(228.5, 77.2%, 51.5%)" stroke-width="1.5"></path><path d="M1574.45 -100.96L1446.05 49.44" stroke="hsl(228.5, 77.2%, 51.5%)" stroke-width="1.5"></path><path d="M1574.45 -100.96L1255.27 -72.34" stroke="hsl(228.5, 77.2%, 51.5%)" stroke-width="1.5"></path><path d="M1574.45 -100.96L1443.24 193.81" stroke="hsl(228.5, 77.2%, 51.5%)" stroke-width="1.5"></path><path d="M1559 60.38L1559 60.38" stroke="hsl(228.5, 77.2%, 51.5%)" stroke-width="1.5"></path><path d="M1559 60.38L1446.05 49.44" stroke="hsl(228.5, 77.2%, 51.5%)" stroke-width="1.5"></path><path d="M-86.56 809.6L-86.56 809.6" stroke="hsl(228.5, 77.2%, 51.5%)" stroke-width="1.5"></path><path d="M-86.56 809.6L101.13 827.38" stroke="hsl(228.5, 77.2%, 51.5%)" stroke-width="1.5"></path><path d="M-86.56 809.6L-72.1 1012.27" stroke="hsl(228.5, 77.2%, 51.5%)" stroke-width="1.5"></path><path d="M-86.56 809.6L74.87 668.89" stroke="hsl(228.5, 77.2%, 51.5%)" stroke-width="1.5"></path><path d="M-86.56 809.6L44.77 979.98" stroke="hsl(228.5, 77.2%, 51.5%)" stroke-width="1.5"></path><path d="M-86.56 809.6L188.13 792.17" stroke="hsl(228.5, 77.2%, 51.5%)" stroke-width="1.5"></path><path d="M-72.1 1012.27L-72.1 1012.27" stroke="hsl(228.5, 77.2%, 51.5%)" stroke-width="1.5"></path><path d="M-72.1 1012.27L44.77 979.98" stroke="hsl(228.5, 77.2%, 51.5%)" stroke-width="1.5"></path><path d="M-72.1 1012.27L101.13 827.38" stroke="hsl(228.5, 77.2%, 51.5%)" stroke-width="1.5"></path><path d="M74.87 668.89L74.87 668.89" stroke="hsl(228.5, 77.2%, 51.5%)" stroke-width="1.5"></path><path d="M101.13 827.38L101.13 827.38" stroke="hsl(228.5, 77.2%, 51.5%)" stroke-width="1.5"></path><path d="M101.13 827.38L188.13 792.17" stroke="hsl(228.5, 77.2%, 51.5%)" stroke-width="1.5"></path><path d="M101.13 827.38L74.87 668.89" stroke="hsl(228.5, 77.2%, 51.5%)" stroke-width="1.5"></path><path d="M44.77 979.98L44.77 979.98" stroke="hsl(228.5, 77.2%, 51.5%)" stroke-width="1.5"></path><path d="M44.77 979.98L193.79 968.32" stroke="hsl(228.5, 77.2%, 51.5%)" stroke-width="1.5"></path><path d="M227.77 650.23L227.77 650.23" stroke="hsl(228.5, 77.2%, 51.5%)" stroke-width="1.5"></path><path d="M227.77 650.23L339.67 697.1" stroke="hsl(228.5, 77.2%, 51.5%)" stroke-width="1.5"></path><path d="M227.77 650.23L188.13 792.17" stroke="hsl(228.5, 77.2%, 51.5%)" stroke-width="1.5"></path><path d="M227.77 650.23L74.87 668.89" stroke="hsl(228.5, 77.2%, 51.5%)" stroke-width="1.5"></path><path d="M227.77 650.23L101.13 827.38" stroke="hsl(228.5, 77.2%, 51.5%)" stroke-width="1.5"></path><path d="M188.13 792.17L188.13 792.17" stroke="hsl(228.5, 77.2%, 51.5%)" stroke-width="1.5"></path><path d="M188.13 792.17L74.87 668.89" stroke="hsl(228.5, 77.2%, 51.5%)" stroke-width="1.5"></path><path d="M188.13 792.17L193.79 968.32" stroke="hsl(228.5, 77.2%, 51.5%)" stroke-width="1.5"></path><path d="M188.13 792.17L339.67 697.1" stroke="hsl(228.5, 77.2%, 51.5%)" stroke-width="1.5"></path><path d="M188.13 792.17L44.77 979.98" stroke="hsl(228.5, 77.2%, 51.5%)" stroke-width="1.5"></path><path d="M193.79 968.32L193.79 968.32" stroke="hsl(228.5, 77.2%, 51.5%)" stroke-width="1.5"></path><path d="M193.79 968.32L355.85 998.38" stroke="hsl(228.5, 77.2%, 51.5%)" stroke-width="1.5"></path><path d="M193.79 968.32L101.13 827.38" stroke="hsl(228.5, 77.2%, 51.5%)" stroke-width="1.5"></path><path d="M339.67 697.1L339.67 697.1" stroke="hsl(228.5, 77.2%, 51.5%)" stroke-width="1.5"></path><path d="M339.67 697.1L517.3 697.16" stroke="hsl(228.5, 77.2%, 51.5%)" stroke-width="1.5"></path><path d="M339.67 697.1L74.87 668.89" stroke="hsl(228.5, 77.2%, 51.5%)" stroke-width="1.5"></path><path d="M339.67 697.1L101.13 827.38" stroke="hsl(228.5, 77.2%, 51.5%)" stroke-width="1.5"></path><path d="M339.67 697.1L355.85 998.38" stroke="hsl(228.5, 77.2%, 51.5%)" stroke-width="1.5"></path><path d="M355.85 998.38L355.85 998.38" stroke="hsl(228.5, 77.2%, 51.5%)" stroke-width="1.5"></path><path d="M355.85 998.38L548.88 999.22" stroke="hsl(228.5, 77.2%, 51.5%)" stroke-width="1.5"></path><path d="M355.85 998.38L188.13 792.17" stroke="hsl(228.5, 77.2%, 51.5%)" stroke-width="1.5"></path><path d="M517.3 697.16L517.3 697.16" stroke="hsl(228.5, 77.2%, 51.5%)" stroke-width="1.5"></path><path d="M517.3 697.16L656.98 654.67" stroke="hsl(228.5, 77.2%, 51.5%)" stroke-width="1.5"></path><path d="M517.3 697.16L649.18 830.88" stroke="hsl(228.5, 77.2%, 51.5%)" stroke-width="1.5"></path><path d="M517.3 697.16L227.77 650.23" stroke="hsl(228.5, 77.2%, 51.5%)" stroke-width="1.5"></path><path d="M517.3 697.16L810.44 647.82" stroke="hsl(228.5, 77.2%, 51.5%)" stroke-width="1.5"></path><path d="M548.88 999.22L548.88 999.22" stroke="hsl(228.5, 77.2%, 51.5%)" stroke-width="1.5"></path><path d="M548.88 999.22L649.18 830.88" stroke="hsl(228.5, 77.2%, 51.5%)" stroke-width="1.5"></path><path d="M656.98 654.67L656.98 654.67" stroke="hsl(228.5, 77.2%, 51.5%)" stroke-width="1.5"></path><path d="M656.98 654.67L810.44 647.82" stroke="hsl(228.5, 77.2%, 51.5%)" stroke-width="1.5"></path><path d="M649.18 830.88L649.18 830.88" stroke="hsl(228.5, 77.2%, 51.5%)" stroke-width="1.5"></path><path d="M649.18 830.88L822.77 844.89" stroke="hsl(228.5, 77.2%, 51.5%)" stroke-width="1.5"></path><path d="M649.18 830.88L656.98 654.67" stroke="hsl(228.5, 77.2%, 51.5%)" stroke-width="1.5"></path><path d="M828.06 554.84L828.06 554.84" stroke="hsl(228.5, 77.2%, 51.5%)" stroke-width="1.5"></path><path d="M828.06 554.84L810.44 647.82" stroke="hsl(228.5, 77.2%, 51.5%)" stroke-width="1.5"></path><path d="M828.06 554.84L941.86 539.28" stroke="hsl(228.5, 77.2%, 51.5%)" stroke-width="1.5"></path><path d="M828.06 554.84L656.98 654.67" stroke="hsl(228.5, 77.2%, 51.5%)" stroke-width="1.5"></path><path d="M810.44 647.82L810.44 647.82" stroke="hsl(228.5, 77.2%, 51.5%)" stroke-width="1.5"></path><path d="M822.77 844.89L822.77 844.89" stroke="hsl(228.5, 77.2%, 51.5%)" stroke-width="1.5"></path><path d="M822.77 844.89L941.84 847.18" stroke="hsl(228.5, 77.2%, 51.5%)" stroke-width="1.5"></path><path d="M822.77 844.89L810.44 647.82" stroke="hsl(228.5, 77.2%, 51.5%)" stroke-width="1.5"></path><path d="M956.9 361.41L956.9 361.41" stroke="hsl(228.5, 77.2%, 51.5%)" stroke-width="1.5"></path><path d="M956.9 361.41L941.86 539.28" stroke="hsl(228.5, 77.2%, 51.5%)" stroke-width="1.5"></path><path d="M956.9 361.41L1153.48 406.45" stroke="hsl(228.5, 77.2%, 51.5%)" stroke-width="1.5"></path><path d="M956.9 361.41L828.06 554.84" stroke="hsl(228.5, 77.2%, 51.5%)" stroke-width="1.5"></path><path d="M956.9 361.41L1104.43 557.87" stroke="hsl(228.5, 77.2%, 51.5%)" stroke-width="1.5"></path><path d="M941.86 539.28L941.86 539.28" stroke="hsl(228.5, 77.2%, 51.5%)" stroke-width="1.5"></path><path d="M941.86 539.28L986.66 686.26" stroke="hsl(228.5, 77.2%, 51.5%)" stroke-width="1.5"></path><path d="M941.86 539.28L1104.43 557.87" stroke="hsl(228.5, 77.2%, 51.5%)" stroke-width="1.5"></path><path d="M941.86 539.28L810.44 647.82" stroke="hsl(228.5, 77.2%, 51.5%)" stroke-width="1.5"></path><path d="M986.66 686.26L986.66 686.26" stroke="hsl(228.5, 77.2%, 51.5%)" stroke-width="1.5"></path><path d="M986.66 686.26L1094.53 683.3" stroke="hsl(228.5, 77.2%, 51.5%)" stroke-width="1.5"></path><path d="M986.66 686.26L941.84 847.18" stroke="hsl(228.5, 77.2%, 51.5%)" stroke-width="1.5"></path><path d="M986.66 686.26L1104.43 557.87" stroke="hsl(228.5, 77.2%, 51.5%)" stroke-width="1.5"></path><path d="M986.66 686.26L810.44 647.82" stroke="hsl(228.5, 77.2%, 51.5%)" stroke-width="1.5"></path><path d="M941.84 847.18L941.84 847.18" stroke="hsl(228.5, 77.2%, 51.5%)" stroke-width="1.5"></path><path d="M941.84 847.18L980.51 975.84" stroke="hsl(228.5, 77.2%, 51.5%)" stroke-width="1.5"></path><path d="M941.84 847.18L1121.01 848.81" stroke="hsl(228.5, 77.2%, 51.5%)" stroke-width="1.5"></path><path d="M941.84 847.18L1094.53 683.3" stroke="hsl(228.5, 77.2%, 51.5%)" stroke-width="1.5"></path><path d="M980.51 975.84L980.51 975.84" stroke="hsl(228.5, 77.2%, 51.5%)" stroke-width="1.5"></path><path d="M1153.48 406.45L1153.48 406.45" stroke="hsl(228.5, 77.2%, 51.5%)" stroke-width="1.5"></path><path d="M1104.43 557.87L1104.43 557.87" stroke="hsl(228.5, 77.2%, 51.5%)" stroke-width="1.5"></path><path d="M1104.43 557.87L1094.53 683.3" stroke="hsl(228.5, 77.2%, 51.5%)" stroke-width="1.5"></path><path d="M1104.43 557.87L1153.48 406.45" stroke="hsl(228.5, 77.2%, 51.5%)" stroke-width="1.5"></path><path d="M1104.43 557.87L1285.01 542.78" stroke="hsl(228.5, 77.2%, 51.5%)" stroke-width="1.5"></path><path d="M1104.43 557.87L1278.3 708.98" stroke="hsl(228.5, 77.2%, 51.5%)" stroke-width="1.5"></path><path d="M1094.53 683.3L1094.53 683.3" stroke="hsl(228.5, 77.2%, 51.5%)" stroke-width="1.5"></path><path d="M1094.53 683.3L1121.01 848.81" stroke="hsl(228.5, 77.2%, 51.5%)" stroke-width="1.5"></path><path d="M1094.53 683.3L1278.3 708.98" stroke="hsl(228.5, 77.2%, 51.5%)" stroke-width="1.5"></path><path d="M1094.53 683.3L941.86 539.28" stroke="hsl(228.5, 77.2%, 51.5%)" stroke-width="1.5"></path><path d="M1121.01 848.81L1121.01 848.81" stroke="hsl(228.5, 77.2%, 51.5%)" stroke-width="1.5"></path><path d="M1255.27 -72.34L1255.27 -72.34" stroke="hsl(228.5, 77.2%, 51.5%)" stroke-width="1.5"></path><path d="M1255.27 -72.34L1247.91 44.69" stroke="hsl(228.5, 77.2%, 51.5%)" stroke-width="1.5"></path><path d="M1255.27 -72.34L1446.05 49.44" stroke="hsl(228.5, 77.2%, 51.5%)" stroke-width="1.5"></path><path d="M1255.27 -72.34L1443.24 193.81" stroke="hsl(228.5, 77.2%, 51.5%)" stroke-width="1.5"></path><path d="M1247.91 44.69L1247.91 44.69" stroke="hsl(228.5, 77.2%, 51.5%)" stroke-width="1.5"></path><path d="M1247.91 44.69L1446.05 49.44" stroke="hsl(228.5, 77.2%, 51.5%)" stroke-width="1.5"></path><path d="M1241.3 254.26L1241.3 254.26" stroke="hsl(228.5, 77.2%, 51.5%)" stroke-width="1.5"></path><path d="M1241.3 254.26L1153.48 406.45" stroke="hsl(228.5, 77.2%, 51.5%)" stroke-width="1.5"></path><path d="M1285.01 542.78L1285.01 542.78" stroke="hsl(228.5, 77.2%, 51.5%)" stroke-width="1.5"></path><path d="M1285.01 542.78L1278.3 708.98" stroke="hsl(228.5, 77.2%, 51.5%)" stroke-width="1.5"></path><path d="M1285.01 542.78L1153.48 406.45" stroke="hsl(228.5, 77.2%, 51.5%)" stroke-width="1.5"></path><path d="M1278.3 708.98L1278.3 708.98" stroke="hsl(228.5, 77.2%, 51.5%)" stroke-width="1.5"></path><path d="M1278.3 708.98L1390.79 841.24" stroke="hsl(228.5, 77.2%, 51.5%)" stroke-width="1.5"></path><path d="M1446.05 49.44L1446.05 49.44" stroke="hsl(228.5, 77.2%, 51.5%)" stroke-width="1.5"></path><path d="M1446.05 49.44L1443.24 193.81" stroke="hsl(228.5, 77.2%, 51.5%)" stroke-width="1.5"></path><path d="M1443.24 193.81L1443.24 193.81" stroke="hsl(228.5, 77.2%, 51.5%)" stroke-width="1.5"></path><path d="M1443.24 193.81L1548.42 256.48" stroke="hsl(228.5, 77.2%, 51.5%)" stroke-width="1.5"></path><path d="M1443.24 193.81L1559 60.38" stroke="hsl(228.5, 77.2%, 51.5%)" stroke-width="1.5"></path><path d="M1390.79 841.24L1390.79 841.24" stroke="hsl(228.5, 77.2%, 51.5%)" stroke-width="1.5"></path><path d="M1390.79 841.24L1405.38 969.73" stroke="hsl(228.5, 77.2%, 51.5%)" stroke-width="1.5"></path><path d="M1390.79 841.24L1545.56 833.21" stroke="hsl(228.5, 77.2%, 51.5%)" stroke-width="1.5"></path><path d="M1390.79 841.24L1303.55 997.7" stroke="hsl(228.5, 77.2%, 51.5%)" stroke-width="1.5"></path><path d="M1390.79 841.24L1556.01 978.01" stroke="hsl(228.5, 77.2%, 51.5%)" stroke-width="1.5"></path><path d="M1405.38 969.73L1405.38 969.73" stroke="hsl(228.5, 77.2%, 51.5%)" stroke-width="1.5"></path><path d="M1405.38 969.73L1556.01 978.01" stroke="hsl(228.5, 77.2%, 51.5%)" stroke-width="1.5"></path><path d="M1405.38 969.73L1545.56 833.21" stroke="hsl(228.5, 77.2%, 51.5%)" stroke-width="1.5"></path><path d="M1405.38 969.73L1278.3 708.98" stroke="hsl(228.5, 77.2%, 51.5%)" stroke-width="1.5"></path><path d="M1548.42 256.48L1548.42 256.48" stroke="hsl(228.5, 77.2%, 51.5%)" stroke-width="1.5"></path><path d="M1548.42 256.48L1562.92 376.02" stroke="hsl(228.5, 77.2%, 51.5%)" stroke-width="1.5"></path><path d="M1548.42 256.48L1559 60.38" stroke="hsl(228.5, 77.2%, 51.5%)" stroke-width="1.5"></path><path d="M1548.42 256.48L1446.05 49.44" stroke="hsl(228.5, 77.2%, 51.5%)" stroke-width="1.5"></path><path d="M1548.42 256.48L1410.6 501.1" stroke="hsl(228.5, 77.2%, 51.5%)" stroke-width="1.5"></path><path d="M1562.92 376.02L1562.92 376.02" stroke="hsl(228.5, 77.2%, 51.5%)" stroke-width="1.5"></path><path d="M1562.92 376.02L1410.6 501.1" stroke="hsl(228.5, 77.2%, 51.5%)" stroke-width="1.5"></path><path d="M1562.92 376.02L1443.24 193.81" stroke="hsl(228.5, 77.2%, 51.5%)" stroke-width="1.5"></path><path d="M1562.92 376.02L1304.08 395.79" stroke="hsl(228.5, 77.2%, 51.5%)" stroke-width="1.5"></path><path d="M1545.56 833.21L1545.56 833.21" stroke="hsl(228.5, 77.2%, 51.5%)" stroke-width="1.5"></path><path d="M1545.56 833.21L1556.01 978.01" stroke="hsl(228.5, 77.2%, 51.5%)" stroke-width="1.5"></path><path d="M1545.56 833.21L1303.55 997.7" stroke="hsl(228.5, 77.2%, 51.5%)" stroke-width="1.5"></path><path d="M1556.01 978.01L1556.01 978.01" stroke="hsl(228.5, 77.2%, 51.5%)" stroke-width="1.5"></path><path d="M1556.01 978.01L1303.55 997.7" stroke="hsl(228.5, 77.2%, 51.5%)" stroke-width="1.5"></path><path d="M1556.01 978.01L1241.4 859.63" stroke="hsl(228.5, 77.2%, 51.5%)" stroke-width="1.5"></path><circle r="25" cx="-62.67" cy="680.44" fill="url(&quot;#SvgjsRadialGradient1007&quot;)"></circle><circle r="25" cx="800.65" cy="983.47" fill="url(&quot;#SvgjsRadialGradient1007&quot;)"></circle><circle r="25" cx="1134.9" cy="211.34" fill="url(&quot;#SvgjsRadialGradient1007&quot;)"></circle><circle r="25" cx="1304.08" cy="395.79" fill="url(&quot;#SvgjsRadialGradient1007&quot;)"></circle><circle r="25" cx="1241.4" cy="859.63" fill="url(&quot;#SvgjsRadialGradient1007&quot;)"></circle><circle r="25" cx="1303.55" cy="997.7" fill="url(&quot;#SvgjsRadialGradient1007&quot;)"></circle><circle r="25" cx="1387.88" cy="-111.71" fill="url(&quot;#SvgjsRadialGradient1007&quot;)"></circle><circle r="25" cx="1409.5" cy="379.51" fill="url(&quot;#SvgjsRadialGradient1007&quot;)"></circle><circle r="25" cx="1410.6" cy="501.1" fill="url(&quot;#SvgjsRadialGradient1007&quot;)"></circle><circle r="25" cx="1574.45" cy="-100.96" fill="url(&quot;#SvgjsRadialGradient1007&quot;)"></circle><circle r="25" cx="1559" cy="60.38" fill="url(&quot;#SvgjsRadialGradient1007&quot;)"></circle><circle r="5" cx="-86.56" cy="809.6" fill="#8b9ad9"></circle><circle r="5" cx="-72.1" cy="1012.27" fill="#8b9ad9"></circle><circle r="5" cx="74.87" cy="668.89" fill="#8b9ad9"></circle><circle r="5" cx="101.13" cy="827.38" fill="#8b9ad9"></circle><circle r="5" cx="44.77" cy="979.98" fill="#8b9ad9"></circle><circle r="5" cx="227.77" cy="650.23" fill="#8b9ad9"></circle><circle r="5" cx="188.13" cy="792.17" fill="#8b9ad9"></circle><circle r="5" cx="193.79" cy="968.32" fill="#8b9ad9"></circle><circle r="5" cx="339.67" cy="697.1" fill="#8b9ad9"></circle><circle r="5" cx="355.85" cy="998.38" fill="#8b9ad9"></circle><circle r="5" cx="517.3" cy="697.16" fill="#8b9ad9"></circle><circle r="5" cx="548.88" cy="999.22" fill="#8b9ad9"></circle><circle r="5" cx="656.98" cy="654.67" fill="#8b9ad9"></circle><circle r="5" cx="649.18" cy="830.88" fill="#8b9ad9"></circle><circle r="5" cx="828.06" cy="554.84" fill="#8b9ad9"></circle><circle r="5" cx="810.44" cy="647.82" fill="#8b9ad9"></circle><circle r="5" cx="822.77" cy="844.89" fill="#8b9ad9"></circle><circle r="5" cx="956.9" cy="361.41" fill="#8b9ad9"></circle><circle r="5" cx="941.86" cy="539.28" fill="#8b9ad9"></circle><circle r="5" cx="986.66" cy="686.26" fill="#8b9ad9"></circle><circle r="5" cx="941.84" cy="847.18" fill="#8b9ad9"></circle><circle r="5" cx="980.51" cy="975.84" fill="#8b9ad9"></circle><circle r="5" cx="1153.48" cy="406.45" fill="#8b9ad9"></circle><circle r="5" cx="1104.43" cy="557.87" fill="#8b9ad9"></circle><circle r="5" cx="1094.53" cy="683.3" fill="#8b9ad9"></circle><circle r="5" cx="1121.01" cy="848.81" fill="#8b9ad9"></circle><circle r="5" cx="1255.27" cy="-72.34" fill="#8b9ad9"></circle><circle r="5" cx="1247.91" cy="44.69" fill="#8b9ad9"></circle><circle r="5" cx="1241.3" cy="254.26" fill="#8b9ad9"></circle><circle r="5" cx="1285.01" cy="542.78" fill="#8b9ad9"></circle><circle r="5" cx="1278.3" cy="708.98" fill="#8b9ad9"></circle><circle r="5" cx="1446.05" cy="49.44" fill="#8b9ad9"></circle><circle r="5" cx="1443.24" cy="193.81" fill="#8b9ad9"></circle><circle r="5" cx="1390.79" cy="841.24" fill="#8b9ad9"></circle><circle r="5" cx="1405.38" cy="969.73" fill="#8b9ad9"></circle><circle r="5" cx="1548.42" cy="256.48" fill="#8b9ad9"></circle><circle r="5" cx="1562.92" cy="376.02" fill="#8b9ad9"></circle><circle r="5" cx="1545.56" cy="833.21" fill="#8b9ad9"></circle><circle r="5" cx="1556.01" cy="978.01" fill="#8b9ad9"></circle></g><defs><mask id="SvgjsMask1006"><rect width="1440" height="800" fill="#ffffff"></rect></mask><radialGradient id="SvgjsRadialGradient1007"><stop stop-color="#ffffff" offset="0.1"></stop><stop stop-color="#1735b3" offset="0.2"></stop><stop stop-color="rgba(23, 53, 179, 0)" offset="1"></stop></radialGradient></defs></svg>